<?xml version="1.0" encoding="UTF-8"?>
<!DOCTYPE svg PUBLIC "-//W3C//DTD SVG 1.1//EN" "http://www.w3.org/Graphics/SVG/1.1/DTD/svg11.dtd">
<!-- Creator: CorelDRAW X6 -->
<svg xmlns="http://www.w3.org/2000/svg" xml:space="preserve" width="47.8239in" height="7.69163in" version="1.1" style="shape-rendering:geometricPrecision; text-rendering:geometricPrecision; image-rendering:optimizeQuality; fill-rule:evenodd; clip-rule:evenodd"
viewBox="0 0 14948 2404"
 xmlns:xlink="http://www.w3.org/1999/xlink">
 <defs>
  <style type="text/css">
   <![CDATA[
    .str0 {stroke:#332C2B;stroke-width:2.17075}
    .fil1 {fill:#1D1819}
    .fil0 {fill:#474443}
    .fil2 {fill:#E62129}
    .fil3 {fill:#FEFEFE}
    .fil8 {fill:#FFF000}
    .fil6 {fill:#EA0506}
    .fil7 {fill:#FEFFFD}
    .fil5 {fill:#E62129;fill-rule:nonzero}
    .fil4 {fill:#FEFEFE;fill-rule:nonzero}
   ]]>
  </style>
 </defs>
 <g id="Layer_x0020_1">
  <metadata id="CorelCorpID_0Corel-Layer"/>
  <polygon class="fil0 str0" points="3,1 14947,16 14945,2403 1,2388 "/>
  <polygon class="fil1 str0" points="1532,969 13416,981 13416,1337 1531,1325 "/>
  <path class="fil2 str0" d="M9509 1784l3807 5c56,0 101,46 101,101l0 320c0,56 -46,101 -101,101l-3807 -5c-56,0 -101,-46 -101,-101l0 -320c0,-56 46,-101 101,-101z"/>
  <g id="_474971544">
   <path class="fil3" d="M9880 1926l0 271c0,10 -5,19 -13,25 -8,6 -17,8 -27,8l-55 0 0 -304 -47 0c-13,0 -29,-2 -38,-14 -4,-6 -6,-12 -6,-19l0 -28 234 0c22,0 41,8 41,33l0 28 -90 0zm266 153l0 120c0,7 -2,14 -6,20 -8,10 -22,13 -35,13l-53 0 0 -365 53 0c22,0 40,8 40,32l0 120 85 0 0 -121c0,-24 19,-32 40,-32l56 0 0 365 -56 0c-12,0 -26,-2 -34,-13 -4,-6 -6,-13 -6,-20l0 -120 -85 0zm486 88l-96 0 -6 30 0 0c-6,20 -18,34 -40,34l-58 0 85 -338c3,-20 19,-27 37,-27l67 0c19,0 35,7 40,26l0 0 81 339 -64 0c-30,0 -41,-29 -45,-54l-2 -10zm219 64l0 -331c0,-10 5,-18 12,-24 9,-7 20,-10 31,-10l55 0 0 331c0,10 -6,18 -14,24 -9,7 -19,10 -30,10l-55 0zm-265 -274l-34 148 3 0 0 2c1,0 1,0 1,0l62 0c0,0 1,0 1,0l0 -1 -34 -149z"/>
   <path class="fil3" d="M11360 2082l36 0c14,0 30,2 39,15 4,5 5,12 5,18l0 21c0,71 -50,94 -113,94 -64,0 -113,-23 -113,-94l0 -178c0,-71 50,-94 113,-94 64,0 113,23 113,94l0 7c0,6 -1,13 -5,18 -8,12 -25,14 -39,14l-36 0 0 -46c0,-22 -13,-28 -33,-28 -20,0 -34,7 -34,28l0 191c0,22 13,28 33,28 20,0 34,-7 34,-28l0 -60zm313 84c4,-2 8,-5 10,-9 3,-6 4,-12 4,-18l0 -243c0,-22 13,-33 35,-33l44 0 0 273c0,17 -3,35 -14,49 -9,15 -21,28 -39,34 -18,8 -42,9 -61,9 -20,0 -43,-2 -62,-10 -17,-7 -29,-18 -38,-34 -11,-14 -14,-32 -14,-49l0 -273 48 0c9,0 18,2 26,8 8,6 12,15 12,25l0 243c0,6 0,15 4,20 2,4 6,6 10,7l0 0 0 0c3,1 6,2 9,2l12 0c5,0 10,0 14,-2zm200 62l0 -331c0,-9 4,-17 10,-24 7,-7 16,-10 26,-10l46 0 0 331c0,9 -4,17 -11,24 -7,7 -16,10 -25,10l-46 0zm361 -11c-20,9 -42,12 -64,12l-6 0c-27,0 -55,-4 -78,-19 -4,-3 -8,-6 -12,-9l0 0 0 0c-8,-9 -14,-19 -17,-31 -3,-10 -3,-21 -3,-31l0 -46 28 0c11,0 21,2 29,8 13,9 24,21 24,38l0 5c0,11 3,21 14,25 5,2 11,3 16,3l2 0c20,0 30,-8 30,-29l0 -26c0,-14 -3,-28 -18,-33 -9,-3 -19,-6 -29,-9 -13,-4 -27,-7 -40,-11l0 0 0 0c-10,-3 -23,-7 -32,-12 -5,-3 -9,-6 -12,-11 -3,-4 -5,-8 -7,-13l0 0 0 0c-2,-5 -3,-11 -4,-16l0 0 0 0c-1,-8 -2,-16 -2,-24 -1,-11 -1,-23 -1,-34 0,-69 53,-89 114,-89 41,0 88,9 106,50 2,4 3,9 5,14 3,9 3,20 3,30l0 36c0,3 -3,6 -6,6l-26 0c-18,0 -38,-4 -46,-22l0 0 0 0c-2,-5 -4,-11 -5,-17l0 0 0 0c0,-5 0,-10 0,-15 0,-3 -2,-8 -3,-11 -6,-9 -17,-11 -28,-11 -20,0 -31,7 -31,28l0 28c0,15 5,27 19,33 4,2 8,3 13,4 4,1 9,2 13,3 8,1 15,3 23,4l0 0 0 0c9,2 19,4 27,7 19,7 34,19 43,38l0 0 0 0c6,13 7,28 7,42l0 3c0,11 0,21 -1,32 0,3 0,5 0,8 0,1 0,2 0,2 0,0 0,1 0,1 0,2 -1,5 -1,7 -1,4 -2,7 -3,11l0 0 0 0c-2,6 -5,12 -9,17 -3,5 -8,10 -13,14l0 0 0 0c-6,5 -13,9 -20,12zm145 11l0 -331c0,-9 4,-17 10,-24 7,-7 16,-10 26,-10l46 0 0 331c0,9 -4,17 -11,24 -7,7 -16,10 -25,10l-46 0zm293 -171c-1,-2 -1,-4 -2,-6 -2,-6 -4,-11 -6,-17 -5,-13 -10,-27 -15,-40l0 202c0,15 -8,25 -21,31l0 0 0 0c-5,2 -11,3 -16,3l-42 0 0 -359c0,0 0,0 0,-1l0 -5 77 0c15,0 28,6 35,20l0 0 0 0c13,36 26,73 40,109 3,9 7,19 10,28 1,3 2,7 4,10l0 1 0 0c0,1 1,2 1,3 1,3 2,6 3,9 1,3 2,6 4,10l0 -156c0,-15 9,-26 23,-32 5,-2 11,-3 16,-3l40 0 0 5c0,0 0,0 0,1l0 359 -60 0c-16,0 -28,-6 -35,-20l0 0 0 0c-13,-37 -27,-74 -40,-110 -3,-10 -7,-19 -10,-29 -1,-3 -3,-7 -4,-11l0 -1 0 0zm340 -131l0 88 59 0c22,0 36,11 36,34l0 28 -95 0 0 94 86 0c22,0 32,13 32,34l0 27 -165 0c-22,0 -36,-11 -36,-34l0 -298c0,-23 14,-34 36,-34l165 0 0 27c0,21 -10,34 -32,34l-86 0z"/>
  </g>
  <path class="fil4" d="M4336 778c-61,0 -91,-27 -91,-81l0 -67 548 1c56,0 85,27 85,81l0 67 -215 0 -1 809c0,25 -9,44 -26,59 -17,15 -37,22 -58,22l-118 0 1 -890 -124 0z"/>
  <path class="fil4" d="M5155 1225l0 367c0,53 -28,79 -84,79l-115 0 1 -1038 115 0c56,0 84,27 84,80l0 368 228 0 0 -368c0,-53 28,-80 84,-80l122 0 -1 1038 -122 0c-56,0 -84,-27 -84,-79l0 -367 -228 0z"/>
  <path class="fil4" d="M6158 631c46,0 75,22 85,65l190 973 -138 0c-51,0 -83,-49 -95,-146l-5 -42 -251 0 -17 99c-14,60 -42,89 -83,89l-122 0 200 -973c5,-44 31,-65 77,-65l160 0zm-85 180l-94 504c0,10 3,15 8,15 0,5 5,7 16,7l148 0c5,0 11,-2 16,-7l0 -15 -93 -504z"/>
  <g id="_474972576">
   <path class="fil4" d="M8009 782l0 288 188 0c59,0 88,28 88,83l0 66 -276 0 0 306 267 0c52,0 78,28 78,83l0 65 -465 0c-59,0 -89,-28 -89,-83l1 -872c0,-56 30,-83 89,-83l465 0 0 65c0,56 -26,83 -78,83l-267 0z"/>
   <path class="fil5" d="M9092 603c19,-43 52,-64 101,-64l164 0 -266 597 293 631 -201 0c-62,0 -95,-19 -101,-56l-183 -431 -9 0 -184 431c-25,37 -58,56 -101,55l-175 0 294 -630 -274 -598 201 0c43,0 77,21 101,64l166 391 173 -390z"/>
   <g>
    <path class="fil4" d="M9797 634c101,0 183,23 244,68 51,46 76,110 76,192l0 137c0,77 -26,138 -77,183 -51,46 -132,69 -244,69l-99 0 0 307c0,27 -10,47 -31,61 -20,14 -41,20 -61,20l-122 0 1 -957c0,-18 8,-36 23,-54 15,-18 38,-27 68,-27l221 0zm0 148l-99 0 0 350 99 0c31,0 52,-2 62,-7 9,-5 17,-9 23,-14 15,-19 22,-32 22,-42l0 -192c0,-19 -2,-35 -6,-48 -10,-18 -20,-30 -31,-34 -15,-9 -38,-14 -69,-14z"/>
    <path class="fil4" d="M10543 635c66,0 114,4 144,11 31,7 53,14 66,21 46,22 78,53 96,95 15,42 23,91 23,148l0 7c0,66 -10,120 -29,161 -8,15 -19,28 -32,41 -12,13 -26,22 -39,30 -13,7 -25,12 -36,16l0 3c1,0 6,2 16,6 45,18 78,48 97,88 15,33 23,75 23,125l0 172c0,51 7,89 21,113l0 1 -206 0c-2,-2 -5,-11 -9,-25 -8,-33 -11,-80 -11,-140 0,-10 1,-52 2,-127 0,-61 -18,-100 -54,-117 -17,-7 -30,-11 -40,-12 -8,-2 -25,-3 -51,-3l-56 0c0,0 0,0 0,1l0 340c0,26 -13,49 -40,68 -15,9 -33,14 -52,14l-113 0c0,0 0,0 0,0l1 -955c0,-30 15,-55 44,-72 13,-7 30,-11 51,-11l186 0zm-77 148l0 319 82 0c56,0 92,-17 108,-52 8,-15 11,-36 11,-62l0 -96c0,-47 -12,-79 -37,-94 -16,-11 -37,-16 -64,-16l-99 0z"/>
    <path class="fil4" d="M11277 785l0 288 188 0c59,0 88,28 88,83l0 66 -276 0 0 306 267 0c52,0 78,28 78,83l0 65 -465 0c-59,0 -89,-28 -89,-83l1 -872c0,-56 30,-83 89,-83l465 0 0 65c0,56 -26,83 -78,83l-267 0z"/>
    <path class="fil4" d="M12018 636c156,0 254,46 294,138 4,10 8,23 13,38 5,20 8,48 8,84l0 105c0,0 -1,1 -2,1l-76 0c-63,0 -103,-19 -121,-56 -7,-17 -12,-32 -13,-46 0,-22 0,-37 0,-43 0,-10 -4,-23 -11,-39 -16,-28 -48,-42 -94,-42 -71,0 -107,32 -107,96l0 81c0,56 21,94 64,112 9,4 22,8 39,13 17,4 53,10 107,20 32,6 57,13 77,21 57,23 95,57 116,102 13,30 20,69 20,117l0 9c-1,83 -2,124 -3,124 0,9 -4,25 -11,51 -8,19 -15,35 -24,48 -6,9 -17,22 -34,38 -21,17 -39,28 -55,33 -50,22 -110,33 -182,33l-17 0c-92,0 -165,-18 -219,-54 -8,-5 -18,-14 -32,-26 -23,-25 -39,-53 -47,-85 -6,-23 -10,-51 -10,-85l0 -120 67 0c30,0 56,7 78,22 43,28 64,61 64,98l0 14c0,45 17,74 51,88 15,6 33,9 53,9l5 0c69,0 103,-33 103,-99l0 -75c0,-59 -20,-97 -62,-112 -45,-15 -112,-34 -201,-57 -42,-12 -72,-23 -90,-35 -14,-9 -24,-18 -31,-28 -6,-8 -12,-19 -17,-34 -4,-12 -8,-27 -11,-45 -5,-35 -8,-91 -8,-167 0,-164 106,-245 318,-245z"/>
    <path class="fil4" d="M12798 637c156,0 254,46 294,138 4,10 8,23 13,38 5,20 8,48 8,84l0 105c0,0 -1,1 -2,1l-76 0c-63,0 -103,-19 -121,-56 -7,-17 -12,-32 -13,-46 0,-22 0,-37 0,-43 0,-10 -4,-23 -11,-39 -16,-28 -48,-42 -94,-42 -71,0 -107,32 -107,96l0 81c0,56 21,94 64,112 9,4 22,8 39,13 17,4 53,10 107,20 32,6 57,13 77,21 57,23 95,57 116,102 13,30 20,69 20,117l0 9c-1,83 -2,124 -3,124 0,9 -4,25 -11,51 -8,19 -15,35 -24,48 -6,9 -17,22 -34,38 -21,17 -39,28 -55,33 -50,22 -110,33 -182,33l-17 0c-92,0 -165,-18 -219,-54 -8,-5 -18,-14 -32,-26 -23,-25 -39,-53 -47,-85 -6,-23 -10,-51 -10,-85l0 -120 67 0c30,0 56,7 78,22 43,28 64,61 64,98l0 14c0,45 17,74 51,88 15,6 33,9 53,9l5 0c69,0 103,-33 103,-99l0 -75c0,-59 -20,-97 -62,-112 -45,-15 -112,-34 -201,-57 -42,-12 -72,-23 -90,-35 -14,-9 -24,-18 -31,-28 -6,-8 -12,-19 -17,-34 -4,-12 -8,-27 -11,-45 -5,-35 -8,-91 -8,-167 0,-164 106,-245 318,-245z"/>
   </g>
  </g>
  <path class="fil6" d="M6826 1205c5,61 63,180 111,245 31,42 66,80 108,115 30,25 110,85 143,94 21,13 44,23 66,31 25,10 53,14 63,36l-9 11c-25,-3 -74,0 -121,-6 -43,-5 -78,-10 -122,-20 -43,-10 -82,-22 -125,-40 -24,-10 -119,-61 -129,-63l-90 -68c-7,-14 -73,-77 -90,-99 -27,-34 -51,-69 -71,-103 -102,-172 -173,-471 -72,-668 94,-185 368,-91 371,78 2,121 -76,363 -33,455z"/>
  <path class="fil7" d="M7205 1691c-60,-1 -202,-77 -263,-125 -179,-141 -253,-370 -243,-582 2,-32 5,-95 17,-127 29,7 50,17 77,38 1,54 -35,88 -27,228 12,212 121,404 317,511 41,22 88,37 122,56z"/>
  <path class="fil8" d="M6840 586c-49,4 -77,-61 -244,-37 -64,9 -43,27 -83,9l4 -14c6,-11 -3,-3 12,-18 18,-18 50,-19 73,-81 28,-75 10,-173 -38,-239 -50,-68 -81,-54 -132,-98 103,-71 238,170 264,278 4,18 11,65 16,74 23,48 112,63 129,127z"/>
  <path class="fil7" d="M6804 843c-29,-22 -50,-29 -73,-45 44,-97 22,-131 28,-151 33,14 46,71 51,93 5,24 3,72 -6,103z"/>
  <g id="_474976800">
   <g>
    <path class="fil4" d="M2689 1667l0 -166 80 0c33,0 55,-2 65,-7 16,-5 33,-15 49,-30 10,-20 16,-43 16,-68l1 -779c0,-61 29,-91 88,-91l136 0 -1 855c0,61 -8,108 -24,143 -22,46 -46,73 -73,83 -37,25 -71,40 -104,44 -22,5 -44,9 -65,12 -21,2 -40,3 -56,3l-113 0z"/>
    <path class="fil4" d="M3561 804c111,0 200,25 267,75 56,50 84,120 84,210l0 150c0,85 -28,151 -84,201 -55,50 -144,75 -267,75l-108 0 0 336c0,29 -11,52 -33,67 -22,15 -45,22 -67,22l-133 0 1 -1046c0,-19 8,-39 25,-59 17,-20 42,-30 74,-30l242 0zm0 162l-109 0 0 383 108 0c34,0 57,-2 68,-7 10,-5 19,-10 25,-15 16,-20 24,-35 24,-45l0 -210c0,-20 -2,-38 -7,-53 -11,-20 -22,-32 -34,-37 -16,-10 -41,-15 -75,-15z"/>
   </g>
   <path class="fil2" d="M1894 1166c0,206 39,355 132,521 66,118 189,261 278,323l-97 -137c-96,-148 -172,-358 -172,-543 0,-277 121,-523 259,-659 228,-226 617,-331 952,-225 89,28 140,65 214,94 30,-20 60,-71 83,-100 18,-22 64,-82 71,-107 -61,-60 -182,-129 -275,-166 -398,-158 -841,-55 -1135,251 -153,159 -309,430 -310,749z"/>
   <path class="fil8" d="M2362 1887l-28 -37c-275,-361 -216,-916 172,-1212 65,-50 212,-123 279,-122 21,37 -6,110 -13,143 -47,230 -129,149 -259,404 -85,167 -113,386 -32,586 186,455 758,509 1107,242 207,-158 185,-211 282,-347 -34,325 -353,594 -667,655 -256,49 -617,-18 -841,-312z"/>
   <g>
    <path class="fil4" d="M2204 511c-7,6 -12,5 -17,0l-6 -7 60 -51c6,-5 12,-5 17,1l6 7 -23 20 75 88c2,3 3,6 3,9 -1,3 -2,6 -4,8l-13 11 -82 -97 -14 11zm140 -29l29 44c4,6 3,12 -4,16l-14 9 -81 -125 14 -9c7,-4 12,-3 16,3l29 44 27 -18 -29 -44c-4,-6 -3,-12 4,-16l15 -10 81 125 -15 10c-7,4 -12,3 -16,-3l-29 -44 -27 18zm95 -156c6,-3 11,-2 15,3l84 115 -18 8c-7,3 -14,-1 -21,-13l-3 -5 -33 15 4 14c2,9 0,14 -5,17l-16 7 -33 -138c-2,-6 0,-10 6,-13l21 -10zm0 28l18 71c1,1 1,2 2,1 0,1 1,1 3,0l19 -9c1,0 1,-1 2,-2l-1 -2 -43 -60zm117 80l-53 -126c-1,-3 -1,-6 0,-9 1,-3 4,-5 7,-7l16 -7 53 126c1,3 1,6 0,9 -1,3 -4,5 -7,7l-16 7z"/>
    <path class="fil4" d="M2713 250l9 40 26 -6c8,-2 13,1 15,9l2 9 -39 9 10 43 37 -9c7,-2 12,1 14,9l2 9 -65 15c-8,2 -13,-1 -15,-9l-29 -121c-2,-8 1,-13 10,-15l65 -15 2 9c2,8 -1,12 -8,14l-37 9z"/>
    <path class="fil4" d="M2864 208c2,-5 5,-9 11,-9l20 -2 -23 76 45 71 -24 3c-7,1 -12,-1 -13,-5l-28 -49 -1 0 -16 55c-2,5 -6,8 -11,8l-21 3 26 -80 -42 -68 24 -3c5,-1 10,1 13,6l26 44 15 -49z"/>
    <path class="fil4" d="M2974 193c15,0 26,3 35,9 7,6 11,16 11,27l0 20c0,11 -3,20 -11,26 -7,7 -19,10 -35,10l-14 0 1 44c0,4 -1,7 -4,9 -3,2 -6,3 -9,3l-17 0 -2 -137c0,-3 1,-5 3,-8 2,-3 5,-4 10,-4l32 -1zm0 21l-14 0 1 50 14 0c4,0 7,0 9,-1 1,-1 2,-1 3,-2 2,-3 3,-5 3,-6l0 -28c0,-3 0,-5 -1,-7 -1,-3 -3,-4 -5,-5 -2,-1 -5,-2 -10,-2z"/>
    <path class="fil4" d="M3099 197c9,1 16,2 20,4 4,1 7,3 9,4 6,4 10,9 12,15 2,6 2,13 1,21l0 1c-1,9 -3,17 -7,23 -1,2 -3,4 -5,5 -2,2 -4,3 -6,4 -2,1 -4,1 -5,2l0 0c0,0 1,0 2,1 6,3 10,8 13,14 2,5 2,11 1,18l-3 25c-1,7 0,13 1,16l0 0 -29 -3c0,0 -1,-2 -1,-4 -1,-5 0,-12 0,-20 0,-1 1,-7 2,-18 1,-9 -1,-14 -6,-17 -2,-1 -4,-2 -6,-2 -1,0 -3,-1 -7,-1l-8 -1c0,0 0,0 0,0l-5 48c0,4 -3,7 -7,9 -2,1 -5,1 -8,1l-16 -2c0,0 0,0 0,0l14 -136c0,-4 3,-8 7,-10 2,-1 4,-1 7,-1l26 3zm-13 20l-5 45 12 1c8,1 13,-1 16,-6 1,-2 2,-5 3,-9l1 -14c1,-7 -1,-11 -4,-14 -2,-2 -5,-3 -9,-3l-14 -1z"/>
    <path class="fil4" d="M3216 235l-9 40 26 6c8,2 12,7 10,14l-2 9 -39 -8 -9 43 37 8c7,2 10,6 8,14l-2 9 -65 -14c-8,-2 -12,-7 -10,-14l27 -122c2,-8 7,-11 15,-9l65 14 -2 9c-2,8 -6,11 -13,9l-37 -8z"/>
    <path class="fil4" d="M3354 249c20,9 30,21 30,36 0,2 0,3 -1,6 0,3 -2,7 -4,11l-6 14c0,0 0,0 0,0l-10 -5c-8,-4 -12,-9 -12,-14 0,-3 0,-5 1,-7 1,-3 2,-5 3,-6 1,-1 1,-3 1,-6 0,-5 -4,-8 -10,-11 -9,-4 -16,-2 -20,6l-5 11c-3,7 -3,14 2,18 1,1 2,2 4,4 2,2 6,5 13,9 4,3 7,5 9,7 6,6 9,13 9,20 0,5 -2,10 -4,16l-1 1c-5,11 -8,16 -8,16 -1,1 -2,3 -4,6 -2,2 -4,4 -6,5 -1,1 -4,2 -7,3 -4,1 -7,1 -9,1 -8,0 -16,-2 -26,-7l-2 -1c-12,-6 -20,-12 -25,-20 -1,-1 -2,-3 -3,-5 -2,-5 -2,-9 -1,-14 1,-3 2,-7 4,-12l7 -16 9 4c4,2 7,4 9,7 4,6 5,12 2,17l-1 2c-3,6 -2,11 1,14 2,2 4,3 6,4l1 0c9,4 15,2 19,-7l5 -10c4,-8 3,-14 -1,-18 -5,-5 -13,-11 -23,-19 -5,-4 -8,-7 -10,-10 -1,-2 -2,-4 -2,-5 0,-1 0,-3 0,-5 0,-2 1,-4 1,-7 1,-5 4,-12 9,-22 10,-21 28,-26 56,-13z"/>
    <path class="fil4" d="M3453 297c20,10 30,22 29,36 0,2 0,3 -1,6 -1,3 -2,7 -4,11l-7 14c0,0 0,0 0,0l-10 -5c-8,-4 -12,-9 -12,-15 0,-3 1,-5 1,-7 1,-3 2,-5 3,-6 1,-1 1,-3 1,-6 0,-5 -4,-8 -10,-11 -9,-4 -16,-2 -20,6l-5 10c-4,7 -3,13 1,18 1,1 2,2 4,4 2,2 6,5 13,9 4,3 7,5 9,8 6,6 9,13 9,20 0,5 -2,10 -5,16l-1 1c-5,11 -8,16 -8,16 -1,1 -2,3 -5,6 -2,2 -4,4 -6,5 -1,1 -4,2 -7,3 -4,1 -7,1 -9,1 -8,0 -16,-3 -25,-7l-2 -1c-12,-6 -20,-13 -25,-20 -1,-1 -1,-3 -2,-5 -1,-5 -2,-9 -1,-14 1,-3 2,-7 4,-12l7 -16 9 4c4,2 7,4 9,8 4,6 5,12 2,17l-1 2c-3,6 -2,11 1,14 2,2 4,3 6,4l1 0c9,4 15,2 19,-6l5 -10c4,-8 3,-14 -1,-18 -5,-5 -12,-11 -22,-20 -5,-4 -8,-7 -9,-10 -1,-2 -2,-4 -2,-5 0,-1 0,-3 0,-5 0,-2 1,-4 1,-6 2,-5 5,-12 9,-22 10,-21 29,-25 56,-12z"/>
   </g>
  </g>
  <path class="fil4" d="M3499 1569l0 8 13 0 0 -8c0,-3 -2,-4 -7,-4 -4,0 -6,1 -6,4zm26 0l0 9c0,1 -1,3 -2,4 -1,1 -2,1 -4,1l-21 0 0 9c0,3 2,4 6,4 5,0 7,-1 7,-4l0 -5 13 0 0 5c0,7 -7,10 -20,10 -6,0 -11,-1 -14,-3 -3,-2 -5,-4 -5,-8l0 -22c0,-3 2,-6 5,-8 3,-2 8,-3 14,-3 13,0 20,4 20,11zm49 15l0 7c0,7 -7,10 -20,10 -13,0 -20,-3 -20,-10l0 -5 5 0c2,0 4,0 5,1 2,1 3,2 3,4l0 0c0,3 2,4 7,4 4,0 7,-1 7,-4l0 -3c0,-2 -1,-4 -4,-5 -3,-1 -6,-1 -9,-1 -3,0 -6,-1 -9,-2 -3,-1 -4,-3 -4,-5l0 -7c0,-7 7,-10 20,-10 13,0 20,3 20,10l0 5 -5 0c-2,0 -5,0 -6,-1 -2,-1 -2,-2 -2,-4l0 0c0,-3 -2,-4 -7,-4 -4,0 -7,1 -7,4l0 3c0,3 1,4 4,5 3,1 6,1 9,1 3,0 6,1 9,1 3,1 4,2 4,5zm10 -32c0,-2 1,-3 2,-4 1,-1 3,-1 4,-1l7 0 0 19 6 0 0 3c0,2 -1,2 -3,2l-3 0 0 20c0,1 1,2 2,3 1,1 3,1 5,1l0 5c-5,0 -9,-1 -13,-2 -4,-1 -6,-4 -6,-8l0 -39zm32 39l9 0c0,0 0,0 0,0l0 8c0,1 -1,2 -2,2 0,0 -1,0 -1,0l-10 0c0,0 0,0 0,0l0 -8c0,-1 1,-2 2,-3 0,0 1,0 1,0zm37 -50l1 0c6,0 11,2 15,5 4,3 6,7 6,12 0,7 -4,14 -12,20 -1,1 -4,3 -7,6 -3,2 -5,4 -6,6 0,0 0,1 -1,1l15 0c3,0 5,1 7,3 2,2 3,4 3,7l0 1c0,0 0,0 0,0l-44 0 0 0c0,-2 1,-3 1,-5 1,-3 2,-5 3,-6 1,-2 3,-4 5,-6 3,-3 7,-7 14,-12 4,-4 7,-6 8,-8 1,-2 2,-4 2,-6 0,-4 -2,-7 -6,-8 -1,0 -2,0 -3,0l-1 0c-3,0 -5,1 -7,3 -1,1 -1,2 -1,3 0,2 -1,3 -1,4 0,0 0,0 -1,0l-11 0 0 0c0,-3 1,-5 1,-6 1,-2 1,-4 2,-5 3,-5 9,-8 18,-8zm48 0c10,0 17,5 20,14 2,5 2,10 2,16l0 1c0,9 -2,16 -6,21 -4,5 -9,7 -16,7 -9,0 -16,-4 -19,-12 -2,-4 -3,-10 -3,-16l0 -2c0,-16 5,-26 14,-29 2,-1 5,-1 8,-1zm-10 30l0 2c0,7 1,12 3,15 2,2 4,3 6,3 4,0 7,-3 9,-9 1,-3 1,-6 1,-10l0 -1c0,-10 -2,-17 -5,-19 -1,-1 -3,-1 -4,-1 -5,0 -8,4 -9,11 0,3 -1,6 -1,9zm59 -30l0 0c0,0 0,0 0,0l0 60c0,0 0,0 0,0l-2 0c-3,0 -6,-1 -8,-3 -2,-1 -2,-3 -2,-5l0 -38 -10 0c0,0 0,0 0,0l0 -7 0 0c4,0 6,0 8,-1 1,0 2,-1 3,-2 2,-1 3,-2 4,-3 1,-1 3,-1 4,-2 1,0 3,0 4,0zm26 0c7,0 13,3 18,8 4,5 6,12 6,22 0,11 -3,19 -8,24 -4,4 -10,6 -17,6 -7,0 -12,-2 -15,-7 -1,-1 -1,-2 -2,-4 -1,-2 -1,-3 -1,-4l0 0c2,0 4,0 4,0 3,0 6,1 9,3 0,0 1,1 2,1 1,1 3,2 5,2 3,0 5,-1 7,-4 0,0 1,-1 1,-2 0,-1 1,-2 1,-4 0,-1 1,-3 1,-6 0,0 0,0 0,0 -3,3 -7,5 -12,5l0 0c-6,0 -10,-2 -14,-6 -3,-3 -5,-8 -5,-13 0,-7 3,-13 9,-17 4,-2 8,-3 12,-3zm-9 19l0 1c0,5 2,9 6,10 1,0 2,0 3,0l0 0c1,0 3,0 4,-1 3,-2 4,-5 4,-9 0,-5 -2,-9 -6,-11 -1,-1 -2,-1 -4,-1 -3,0 -5,1 -7,3 -1,2 -2,4 -2,7z"/>
 </g>
</svg>
